<svg width="500" height="500" viewBox="0 0 500 500" fill="none" xmlns="http://www.w3.org/2000/svg">
<path d="M378.935 183.035L250.6 201.035C227.725 204.245 210.515 222.8 209.75 245.085L203.745 420H309.585L333.945 332.615C348.942 282.748 363.938 232.888 378.935 183.035Z" fill="#F2EADA"/>
<path d="M400.595 180L378.935 183.04C363.935 232.89 348.935 282.742 333.935 332.595C330.47 356.96 342.175 380.415 362.11 390.55C386.57 402.98 419.55 393.385 435.26 366.435C439.075 353.3 444.125 335.58 449.86 314.51C460.175 276.6 462.155 266.56 462.775 253.85C463.87 231.35 464.715 212.205 451.89 197.35C435.595 178.395 407.465 179.535 400.595 180Z" fill="#F2EADA"/>
<path d="M333 168.555H323.815V91.055H360.04V141.5C360.043 145.053 359.346 148.571 357.989 151.854C356.631 155.137 354.64 158.12 352.128 160.633C349.617 163.146 346.635 165.139 343.353 166.498C340.071 167.857 336.553 168.556 333 168.555Z" fill="#BD4632"/>
<path d="M216.205 417.595L204.5 421.89C193.471 425.94 181.285 425.443 170.623 420.508C159.96 415.573 151.695 406.604 147.645 395.575L109.875 292.68C108.221 288.18 107.47 283.398 107.665 278.607C107.86 273.816 108.997 269.111 111.011 264.76C113.024 260.409 115.876 256.497 119.402 253.248C122.927 249.999 127.059 247.477 131.56 245.825L157.88 236.16C162.38 234.506 167.162 233.755 171.953 233.95C176.744 234.145 181.449 235.282 185.8 237.296C190.151 239.309 194.063 242.161 197.312 245.687C200.561 249.213 203.083 253.344 204.735 257.845L242.5 360.74C246.551 371.766 246.056 383.95 241.125 394.612C236.194 405.274 227.23 413.541 216.205 417.595Z" fill="#F2EADA"/>
<path d="M340.745 195.74C331.307 202.313 320.32 206.315 308.865 207.35C302.361 207.899 295.811 207.457 289.44 206.04C286.54 191.587 283.638 177.133 280.735 162.68L332.04 152.385L340.745 195.74Z" fill="#F985BF"/>
<path d="M283.97 178.795L314.555 172.5C314.83 172.445 315.116 172.487 315.364 172.62C315.612 172.752 315.806 172.966 315.914 173.225C316.022 173.484 316.037 173.773 315.956 174.042C315.875 174.311 315.703 174.543 315.47 174.7L286.94 193.6L283.97 178.795Z" fill="#3B1534"/>
<path d="M330.75 96.245L307.28 96.69L276 97.28L260.355 97.58L252.535 97.725C251.455 97.725 249.435 97.385 248.455 97.8C247.475 98.215 247.815 99.5 247.79 100.625C247.49 113.915 247 127.225 246.685 140.53L246.46 166.6C246.46 166.665 246.46 166.73 246.46 166.795C246.375 169.135 246.821 171.464 247.765 173.607C248.709 175.75 250.127 177.651 251.911 179.168C253.695 180.684 255.8 181.777 258.067 182.364C260.334 182.95 262.704 183.016 265 182.555L289.5 177.65L335.385 168.185C333.848 144.205 332.303 120.225 330.75 96.245Z" fill="#F985BF"/>
<path d="M300.155 121.6L325.455 110.6" stroke="#3B1534" stroke-width="5" stroke-miterlimit="10" stroke-linecap="round"/>
<path d="M308.66 152.71L329.82 134.385" stroke="#3B1534" stroke-width="5" stroke-miterlimit="10" stroke-linecap="round"/>
<path d="M335.395 112.67H318C314.287 112.67 310.726 111.195 308.1 108.569C305.475 105.944 304 102.383 304 98.67V90.105H335.39L335.395 112.67Z" fill="#BD4632"/>
<path d="M333.73 136.72C342.081 136.72 348.85 129.951 348.85 121.6C348.85 113.249 342.081 106.48 333.73 106.48C325.379 106.48 318.61 113.249 318.61 121.6C318.61 129.951 325.379 136.72 333.73 136.72Z" fill="#F985BF"/>
<path d="M333.125 128.21C335.806 128.21 337.98 126.036 337.98 123.355C337.98 120.674 335.806 118.5 333.125 118.5C330.444 118.5 328.27 120.674 328.27 123.355C328.27 126.036 330.444 128.21 333.125 128.21Z" stroke="#3B1534" stroke-width="5" stroke-miterlimit="10" stroke-linecap="round"/>
<path d="M360.04 98.425H247.97V89.33C247.97 81.1971 251.201 73.3974 256.952 67.6466C262.702 61.8958 270.502 58.665 278.635 58.665H329.375C337.508 58.665 345.308 61.8958 351.058 67.6466C356.809 73.3974 360.04 81.1971 360.04 89.33V98.425Z" fill="#2E9CCA"/>
<path d="M339.185 114C339.185 114 330.26 115.265 328.795 121.19" stroke="#3B1534" stroke-width="5" stroke-miterlimit="10" stroke-linecap="round"/>
<path d="M355.32 261.67L333.945 332.59" stroke="#3B1534" stroke-width="5" stroke-miterlimit="10" stroke-linecap="round"/>
<path d="M276.3 207.135C282.075 213.875 288 217 292.05 218.59C310.255 225.64 333.585 217.56 351.44 198.59" stroke="#3B1534" stroke-width="5" stroke-miterlimit="10" stroke-linecap="round"/>
<path d="M424.135 80.44C426.535 80.44 428.48 78.4947 428.48 76.095C428.48 73.6953 426.535 71.75 424.135 71.75C421.735 71.75 419.79 73.6953 419.79 76.095C419.79 78.4947 421.735 80.44 424.135 80.44Z" fill="#2E9CCA"/>
<path d="M451.765 83.575C454.165 83.575 456.11 81.6297 456.11 79.23C456.11 76.8303 454.165 74.885 451.765 74.885C449.365 74.885 447.42 76.8303 447.42 79.23C447.42 81.6297 449.365 83.575 451.765 83.575Z" fill="#2E9CCA"/>
<path d="M469.975 106.49C472.375 106.49 474.32 104.545 474.32 102.145C474.32 99.7453 472.375 97.8 469.975 97.8C467.575 97.8 465.63 99.7453 465.63 102.145C465.63 104.545 467.575 106.49 469.975 106.49Z" fill="#2E9CCA"/>
<path d="M468.075 130.755C470.475 130.755 472.42 128.81 472.42 126.41C472.42 124.01 470.475 122.065 468.075 122.065C465.675 122.065 463.73 124.01 463.73 126.41C463.73 128.81 465.675 130.755 468.075 130.755Z" fill="#2E9CCA"/>
<path d="M446.1 146.8C448.5 146.8 450.445 144.855 450.445 142.455C450.445 140.055 448.5 138.11 446.1 138.11C443.7 138.11 441.755 140.055 441.755 142.455C441.755 144.855 443.7 146.8 446.1 146.8Z" fill="#2E9CCA"/>
<path d="M418.085 143.665C420.485 143.665 422.43 141.72 422.43 139.32C422.43 136.92 420.485 134.975 418.085 134.975C415.685 134.975 413.74 136.92 413.74 139.32C413.74 141.72 415.685 143.665 418.085 143.665Z" fill="#2E9CCA"/>
<path d="M400.54 122.315C402.94 122.315 404.885 120.37 404.885 117.97C404.885 115.57 402.94 113.625 400.54 113.625C398.14 113.625 396.195 115.57 396.195 117.97C396.195 120.37 398.14 122.315 400.54 122.315Z" fill="#2E9CCA"/>
<path d="M403.75 95.365C406.15 95.365 408.095 93.4197 408.095 91.02C408.095 88.6203 406.15 86.675 403.75 86.675C401.35 86.675 399.405 88.6203 399.405 91.02C399.405 93.4197 401.35 95.365 403.75 95.365Z" fill="#2E9CCA"/>
<path d="M425.475 80.23L444.375 138.465" stroke="#3B1534" stroke-width="5" stroke-miterlimit="10" stroke-linecap="round"/>
<path d="M450.245 83.295L420.27 135.565" stroke="#3B1534" stroke-width="5" stroke-miterlimit="10" stroke-linecap="round"/>
<path d="M407.415 93.65L463.925 125.125" stroke="#3B1534" stroke-width="5" stroke-miterlimit="10" stroke-linecap="round"/>
<path d="M465.705 102.94L404.78 117.03" stroke="#3B1534" stroke-width="5" stroke-miterlimit="10" stroke-linecap="round"/>
<path d="M436.085 130.295C447.694 130.295 457.105 120.884 457.105 109.275C457.105 97.666 447.694 88.255 436.085 88.255C424.476 88.255 415.065 97.666 415.065 109.275C415.065 120.884 424.476 130.295 436.085 130.295Z" fill="#2E9CCA"/>
<path d="M48.795 318.16C51.1947 318.16 53.14 316.215 53.14 313.815C53.14 311.415 51.1947 309.47 48.795 309.47C46.3953 309.47 44.45 311.415 44.45 313.815C44.45 316.215 46.3953 318.16 48.795 318.16Z" fill="#2E9CCA"/>
<path d="M76.425 321.295C78.8247 321.295 80.77 319.35 80.77 316.95C80.77 314.55 78.8247 312.605 76.425 312.605C74.0253 312.605 72.08 314.55 72.08 316.95C72.08 319.35 74.0253 321.295 76.425 321.295Z" fill="#2E9CCA"/>
<path d="M94.635 344.205C97.0347 344.205 98.98 342.26 98.98 339.86C98.98 337.46 97.0347 335.515 94.635 335.515C92.2353 335.515 90.29 337.46 90.29 339.86C90.29 342.26 92.2353 344.205 94.635 344.205Z" fill="#2E9CCA"/>
<path d="M92.735 368.47C95.1347 368.47 97.08 366.525 97.08 364.125C97.08 361.725 95.1347 359.78 92.735 359.78C90.3353 359.78 88.39 361.725 88.39 364.125C88.39 366.525 90.3353 368.47 92.735 368.47Z" fill="#2E9CCA"/>
<path d="M70.76 384.52C73.1597 384.52 75.105 382.575 75.105 380.175C75.105 377.775 73.1597 375.83 70.76 375.83C68.3603 375.83 66.415 377.775 66.415 380.175C66.415 382.575 68.3603 384.52 70.76 384.52Z" fill="#2E9CCA"/>
<path d="M42.745 381.385C45.1447 381.385 47.09 379.44 47.09 377.04C47.09 374.64 45.1447 372.695 42.745 372.695C40.3453 372.695 38.4 374.64 38.4 377.04C38.4 379.44 40.3453 381.385 42.745 381.385Z" fill="#2E9CCA"/>
<path d="M25.2 360.035C27.5997 360.035 29.545 358.09 29.545 355.69C29.545 353.29 27.5997 351.345 25.2 351.345C22.8003 351.345 20.855 353.29 20.855 355.69C20.855 358.09 22.8003 360.035 25.2 360.035Z" fill="#2E9CCA"/>
<path d="M28.41 333.085C30.8097 333.085 32.755 331.14 32.755 328.74C32.755 326.34 30.8097 324.395 28.41 324.395C26.0103 324.395 24.065 326.34 24.065 328.74C24.065 331.14 26.0103 333.085 28.41 333.085Z" fill="#2E9CCA"/>
<path d="M50.135 317.945L69.035 376.185" stroke="#3B1534" stroke-width="5" stroke-miterlimit="10" stroke-linecap="round"/>
<path d="M74.905 321.015L44.93 373.285" stroke="#3B1534" stroke-width="5" stroke-miterlimit="10" stroke-linecap="round"/>
<path d="M32.075 331.37L88.585 362.845" stroke="#3B1534" stroke-width="5" stroke-miterlimit="10" stroke-linecap="round"/>
<path d="M90.365 340.655L29.44 354.75" stroke="#3B1534" stroke-width="5" stroke-miterlimit="10" stroke-linecap="round"/>
<path d="M60.745 368.015C72.354 368.015 81.765 358.604 81.765 346.995C81.765 335.386 72.354 325.975 60.745 325.975C49.136 325.975 39.725 335.386 39.725 346.995C39.725 358.604 49.136 368.015 60.745 368.015Z" fill="#2E9CCA"/>
<path d="M133.345 247.71C133.345 247.71 127.275 266.075 134.985 277.645" stroke="#3B1534" stroke-width="5" stroke-miterlimit="10" stroke-linecap="round"/>
<path d="M151.355 244C157.332 252.959 159.995 263.723 158.885 274.435" stroke="#3B1534" stroke-width="5" stroke-miterlimit="10" stroke-linecap="round"/>
<path d="M221.26 246.23L215.81 288" stroke="#3B1534" stroke-width="5" stroke-miterlimit="10" stroke-linecap="round"/>
<path d="M140.655 180.425C138.905 180.335 137.155 180.325 135.405 180.325L47.67 180.215C43.975 180.215 37.255 179.955 35.055 183.65C32.78 187.47 35.26 192.77 38.655 194.915C42.31 197.22 46.87 197.38 51.19 197.47L68.265 197.825C67.145 202.095 71.265 206.17 75.595 207.11C79.925 208.05 84.365 206.94 88.77 206.77C94.16 206.57 100.12 207.93 103.99 211.93C108.795 216.89 111.88 223.155 115.58 228.93C117.81 232.395 120.08 235.83 122.325 239.275C122.975 240.275 128.465 249.775 129.08 249.64L179.58 237.205C175.675 221.075 170.9 204.65 160.72 191.545C157.78 187.76 154.295 184.21 149.885 182.32C147 181.055 143.835 180.595 140.655 180.425Z" fill="#2E9CCA"/>
<path d="M181.265 205.7H170.465V224.845H181.265V205.7Z" stroke="#3B1534" stroke-width="5" stroke-miterlimit="10" stroke-linecap="round"/>
<path d="M191.5 228.88C191.5 227.218 190.84 225.625 189.665 224.45C188.49 223.275 186.897 222.615 185.235 222.615H166.5C164.838 222.615 163.245 223.275 162.07 224.45C160.895 225.625 160.235 227.218 160.235 228.88V238.075H191.5V228.88Z" fill="#FFB6DB"/>
<path d="M191.49 238.075H160.245V309.12H191.49V238.075Z" fill="#3B1534"/>
<path d="M191.49 246.31H177.405" stroke="#F2EADA" stroke-width="5" stroke-miterlimit="10" stroke-linecap="round"/>
<path d="M191.49 257.2H177.405" stroke="#F2EADA" stroke-width="5" stroke-miterlimit="10" stroke-linecap="round"/>
<path d="M191.49 268.815H177.405" stroke="#F2EADA" stroke-width="5" stroke-miterlimit="10" stroke-linecap="round"/>
<path d="M175.865 205.7V180.935" stroke="#3B1534" stroke-width="5" stroke-miterlimit="10" stroke-linecap="round"/>
<path d="M174.2 166.87C174.268 166.82 174.328 166.761 174.38 166.695C174.443 166.614 174.49 166.523 174.52 166.425C176.225 160.71 175.895 152.605 175.895 152.605C175.715 148.135 175.56 145.4 173.95 142.53C173.536 141.692 172.838 141.027 171.98 140.655C169.3 139.565 167.635 143.09 167.28 145.155C166.34 150.655 168.15 156.005 170.115 161.095C170.405 161.865 172.9 167.7 174.2 166.87Z" fill="#2E9CCA"/>
<path d="M178.86 174.305C178.942 174.323 179.028 174.323 179.11 174.305C179.212 174.285 179.309 174.25 179.4 174.2C184.555 171.2 189.865 165.07 189.865 165.07C192.79 161.69 194.55 159.57 195.365 156.395C195.632 155.5 195.577 154.539 195.21 153.68C194 151.05 190.375 152.485 188.71 153.755C184.245 157.13 181.91 162.255 179.86 167.31C179.5 168.06 177.345 174 178.86 174.305Z" fill="#2E9CCA"/>
<path d="M184.445 302.13C184.445 302.13 174.62 303.595 168.75 258.42C168.75 258.42 167.205 238.83 157.185 244.99C157.185 244.99 151.99 247.65 155.37 275.8L158.1 293C158.1 293 157.945 293.28 157.69 293.79C155.486 298.174 154.324 303.007 154.292 307.914C154.261 312.821 155.362 317.668 157.51 322.08L170.28 348.46C172.327 352.746 175.06 356.669 178.37 360.075C180.77 362.516 183.456 364.658 186.37 366.455C193.737 370.952 202.278 373.145 210.9 372.755L241.2 340.945L229.96 325.75C230.74 323.086 231.21 320.342 231.36 317.57C231.575 313.71 231.71 311.245 230.265 308.795C228.55 305.885 225.58 304.63 223.885 304.095C223.775 302.925 223.13 297.135 218.15 293.095C215.863 291.268 213.108 290.123 210.2 289.79C210.145 287.975 210.05 285.33 209.9 282.14C209.09 265.11 207.98 261.445 205.285 258.99C204.655 258.415 202.45 256.41 199.245 256.33C198.66 256.33 196.245 256.255 194.36 257.785C192.19 259.57 191.955 263.365 191.82 270.895C191.64 280.75 191.865 281.505 191.72 284.085C191.5 288.04 191.23 302.95 184.445 302.13Z" fill="#2E9CCA"/>
<path d="M204.8 315.92C208.478 307.794 210.343 298.964 210.265 290.045" stroke="#3B1534" stroke-width="5" stroke-miterlimit="10" stroke-linecap="round"/>
<path d="M218.255 321.66C218.255 321.66 222.255 318.12 223.885 304.095" stroke="#3B1534" stroke-width="5" stroke-miterlimit="10" stroke-linecap="round"/>
<path d="M222.775 337.315C226.328 334.313 228.842 330.265 229.96 325.75" stroke="#3B1534" stroke-width="5" stroke-miterlimit="10" stroke-linecap="round"/>
<path d="M118.92 114.735C115.98 112.822 112.544 111.81 109.036 111.824C105.528 111.837 102.101 112.875 99.175 114.81L99 131.545H119.415C119.242 125.942 119.077 120.338 118.92 114.735Z" fill="#2E9CCA"/>
<path d="M109.095 118.41C114.389 118.41 118.68 116.939 118.68 115.125C118.68 113.311 114.389 111.84 109.095 111.84C103.801 111.84 99.51 113.311 99.51 115.125C99.51 116.939 103.801 118.41 109.095 118.41Z" stroke="#3B1534" stroke-width="5" stroke-miterlimit="10" stroke-linecap="round"/>
<path d="M112.1 131.545V119.18" stroke="#3B1534" stroke-width="5" stroke-miterlimit="10" stroke-linecap="round"/>
<path d="M105.275 131.165V118.8" stroke="#3B1534" stroke-width="5" stroke-miterlimit="10" stroke-linecap="round"/>
<path d="M122.665 131.545H95.52C92.2698 131.545 89.635 134.18 89.635 137.43V181.835C89.635 185.085 92.2698 187.72 95.52 187.72H122.665C125.915 187.72 128.55 185.085 128.55 181.835V137.43C128.55 134.18 125.915 131.545 122.665 131.545Z" fill="#F2EADA"/>
<path d="M114.565 177.635H90.465V144.045H114.565C114.848 144.045 115.128 144.101 115.389 144.209C115.65 144.317 115.887 144.476 116.087 144.676C116.287 144.877 116.445 145.114 116.553 145.376C116.661 145.637 116.716 145.917 116.715 146.2V175.5C116.711 176.068 116.483 176.611 116.08 177.011C115.677 177.411 115.133 177.635 114.565 177.635Z" fill="#FFB6DB"/>
<path d="M68.265 197.825C68.53 191.565 74.32 189.575 79.69 189.145C87.225 188.54 95.005 188.96 102.565 188.875" stroke="#3B1534" stroke-width="5" stroke-miterlimit="10" stroke-linecap="round"/>
<path d="M255.515 85.915H351.96" stroke="#F2EADA" stroke-width="5" stroke-miterlimit="10" stroke-linecap="round"/>
<path d="M298.86 443.145L222 417.255C200.43 409.99 193.245 383.085 208.315 366.035L229.105 342.535C232.299 338.922 236.272 336.083 240.724 334.231C245.176 332.379 249.991 331.563 254.805 331.845L402.93 331.74C407.803 331.741 412.612 332.842 417.001 334.959C421.389 337.076 425.244 340.155 428.278 343.968C431.312 347.781 433.447 352.229 434.524 356.981C435.601 361.733 435.593 366.667 434.5 371.415C418.17 429.75 356.275 462.5 298.86 443.145Z" fill="#F2EADA"/>
<path d="M214 360.765C217.246 366.56 221.769 371.54 227.228 375.325C232.686 379.11 238.935 381.601 245.5 382.61" stroke="#3B1534" stroke-width="5" stroke-miterlimit="10" stroke-linecap="round"/>
<path d="M225.665 347.555C237.751 349.037 248.88 354.886 256.955 364" stroke="#3B1534" stroke-width="5" stroke-miterlimit="10" stroke-linecap="round"/>
<path d="M391.28 331.77L321.38 332.77C306.685 332.98 291.45 333.105 276.545 332.845C268.808 332.705 261.077 332.453 253.35 332.09C247.625 331.82 241.5 331.42 237.195 335.945" stroke="#3B1534" stroke-width="5" stroke-miterlimit="10" stroke-linecap="round"/>
<path d="M254.97 428.36L222 417.255C210.095 413.83 201.25 404.205 199.4 392.645C197.235 379.115 205.645 369.185 206.9 367.755" stroke="#3B1534" stroke-width="5" stroke-miterlimit="10" stroke-linecap="round"/>
<path d="M299.875 120.65L246.675 140.53C246.5 147.945 246.38 155.355 246.38 162.76C246.295 166.55 246.23 170.46 247.655 173.97C248.92 177.08 251.655 179.645 254.55 181.235C260.84 184.705 267.835 182.12 274.31 180.785L280.46 179.515L284.63 178.655L286.98 178.155C287.45 178.06 289.225 177.98 289.51 177.655L309.5 153.385L299.875 120.65Z" fill="#F2EADA"/>
<path d="M246.45 152.385L287.725 137.645" stroke="#2E9CCA" stroke-width="5" stroke-miterlimit="10" stroke-linecap="round"/>
<path d="M246.45 166.6L280.735 154.535" stroke="#2E9CCA" stroke-width="5" stroke-miterlimit="10" stroke-linecap="round"/>
</svg>
